{
    "asset" : {
        "generator" : "Khronos glTF Blender I/O v3.2.43",
        "version" : "2.0"
    },
    "scene" : 0,
    "scenes" : [
        {
            "name" : "Scene",
            "nodes" : [
                0
            ]
        }
    ],
    "nodes" : [
        {
            "mesh" : 0,
            "name" : "big_rock_02",
            "rotation" : [
                0,
                -0.7071068286895752,
                0,
                0.7071068286895752
            ],
            "scale" : [
                1.0872517824172974,
                1.8220456838607788,
                1.0872517824172974
            ],
            "translation" : [
                -14.436483383178711,
                0.17525413632392883,
                -5.5930633544921875
            ]
        }
    ],
    "animations" : [
        {
            "channels" : [
                {
                    "sampler" : 0,
                    "target" : {
                        "node" : 0,
                        "path" : "translation"
                    }
                },
                {
                    "sampler" : 1,
                    "target" : {
                        "node" : 0,
                        "path" : "rotation"
                    }
                },
                {
                    "sampler" : 2,
                    "target" : {
                        "node" : 0,
                        "path" : "scale"
                    }
                }
            ],
            "name" : "big_rock_02",
            "samplers" : [
                {
                    "input" : 11,
                    "interpolation" : "LINEAR",
                    "output" : 12
                },
                {
                    "input" : 11,
                    "interpolation" : "LINEAR",
                    "output" : 13
                },
                {
                    "input" : 11,
                    "interpolation" : "LINEAR",
                    "output" : 14
                }
            ]
        }
    ],
    "materials" : [
        {
            "doubleSided" : true,
            "name" : "rock",
            "pbrMetallicRoughness" : {}
        }
    ],
    "meshes" : [
        {
            "name" : "Cylinder.007",
            "primitives" : [
                {
                    "attributes" : {
                        "POSITION" : 0,
                        "NORMAL" : 1,
                        "TEXCOORD_0" : 2,
                        "TEXCOORD_1" : 3,
                        "TEXCOORD_2" : 4,
                        "TEXCOORD_3" : 5,
                        "TEXCOORD_4" : 6,
                        "TEXCOORD_5" : 7,
                        "TEXCOORD_6" : 8,
                        "TEXCOORD_7" : 9
                    },
                    "indices" : 10,
                    "material" : 0
                }
            ]
        }
    ],
    "accessors" : [
        {
            "bufferView" : 0,
            "componentType" : 5126,
            "count" : 2784,
            "max" : [
                2.1910512447357178,
                2.47725772857666,
                1.9551008939743042
            ],
            "min" : [
                -2.1052768230438232,
                -0.10324904322624207,
                -2.1580047607421875
            ],
            "type" : "VEC3"
        },
        {
            "bufferView" : 1,
            "componentType" : 5126,
            "count" : 2784,
            "type" : "VEC3"
        },
        {
            "bufferView" : 2,
            "componentType" : 5126,
            "count" : 2784,
            "type" : "VEC2"
        },
        {
            "bufferView" : 3,
            "componentType" : 5126,
            "count" : 2784,
            "type" : "VEC2"
        },
        {
            "bufferView" : 4,
            "componentType" : 5126,
            "count" : 2784,
            "type" : "VEC2"
        },
        {
            "bufferView" : 5,
            "componentType" : 5126,
            "count" : 2784,
            "type" : "VEC2"
        },
        {
            "bufferView" : 6,
            "componentType" : 5126,
            "count" : 2784,
            "type" : "VEC2"
        },
        {
            "bufferView" : 7,
            "componentType" : 5126,
            "count" : 2784,
            "type" : "VEC2"
        },
        {
            "bufferView" : 8,
            "componentType" : 5126,
            "count" : 2784,
            "type" : "VEC2"
        },
        {
            "bufferView" : 9,
            "componentType" : 5126,
            "count" : 2784,
            "type" : "VEC2"
        },
        {
            "bufferView" : 10,
            "componentType" : 5123,
            "count" : 4860,
            "type" : "SCALAR"
        },
        {
            "bufferView" : 11,
            "componentType" : 5126,
            "count" : 2,
            "max" : [
                0.041666666666666664
            ],
            "min" : [
                0
            ],
            "type" : "SCALAR"
        },
        {
            "bufferView" : 12,
            "componentType" : 5126,
            "count" : 2,
            "type" : "VEC3"
        },
        {
            "bufferView" : 13,
            "componentType" : 5126,
            "count" : 2,
            "type" : "VEC4"
        },
        {
            "bufferView" : 14,
            "componentType" : 5126,
            "count" : 2,
            "type" : "VEC3"
        }
    ],
    "bufferViews" : [
        {
            "buffer" : 0,
            "byteLength" : 33408,
            "byteOffset" : 0
        },
        {
            "buffer" : 0,
            "byteLength" : 33408,
            "byteOffset" : 33408
        },
        {
            "buffer" : 0,
            "byteLength" : 22272,
            "byteOffset" : 66816
        },
        {
            "buffer" : 0,
            "byteLength" : 22272,
            "byteOffset" : 89088
        },
        {
            "buffer" : 0,
            "byteLength" : 22272,
            "byteOffset" : 111360
        },
        {
            "buffer" : 0,
            "byteLength" : 22272,
            "byteOffset" : 133632
        },
        {
            "buffer" : 0,
            "byteLength" : 22272,
            "byteOffset" : 155904
        },
        {
            "buffer" : 0,
            "byteLength" : 22272,
            "byteOffset" : 178176
        },
        {
            "buffer" : 0,
            "byteLength" : 22272,
            "byteOffset" : 200448
        },
        {
            "buffer" : 0,
            "byteLength" : 22272,
            "byteOffset" : 222720
        },
        {
            "buffer" : 0,
            "byteLength" : 9720,
            "byteOffset" : 244992
        },
        {
            "buffer" : 0,
            "byteLength" : 8,
            "byteOffset" : 254712
        },
        {
            "buffer" : 0,
            "byteLength" : 24,
            "byteOffset" : 254720
        },
        {
            "buffer" : 0,
            "byteLength" : 32,
            "byteOffset" : 254744
        },
        {
            "buffer" : 0,
            "byteLength" : 24,
            "byteOffset" : 254776
        }
    ],
    "buffers" : [
        {
            "byteLength" : 254800,
            "uri" : "rock3_big.bin"
        }
    ]
}
