{
    "asset" : {
        "generator" : "Khronos glTF Blender I/O v3.2.43",
        "version" : "2.0"
    },
    "scene" : 0,
    "scenes" : [
        {
            "name" : "Scene",
            "nodes" : [
                0
            ]
        }
    ],
    "nodes" : [
        {
            "mesh" : 0,
            "name" : "big_rock_03",
            "rotation" : [
                0,
                -0.7071068286895752,
                0,
                0.7071068286895752
            ],
            "scale" : [
                1.8016297817230225,
                1.8016297817230225,
                1.8016297817230225
            ],
            "translation" : [
                -0.2494349479675293,
                0,
                -5.096260070800781
            ]
        }
    ],
    "animations" : [
        {
            "channels" : [
                {
                    "sampler" : 0,
                    "target" : {
                        "node" : 0,
                        "path" : "translation"
                    }
                },
                {
                    "sampler" : 1,
                    "target" : {
                        "node" : 0,
                        "path" : "rotation"
                    }
                },
                {
                    "sampler" : 2,
                    "target" : {
                        "node" : 0,
                        "path" : "scale"
                    }
                }
            ],
            "name" : "big_rock_03",
            "samplers" : [
                {
                    "input" : 11,
                    "interpolation" : "LINEAR",
                    "output" : 12
                },
                {
                    "input" : 11,
                    "interpolation" : "LINEAR",
                    "output" : 13
                },
                {
                    "input" : 11,
                    "interpolation" : "LINEAR",
                    "output" : 14
                }
            ]
        }
    ],
    "materials" : [
        {
            "doubleSided" : true,
            "name" : "gltfcompa",
            "pbrMetallicRoughness" : {
                "metallicFactor" : 0,
                "roughnessFactor" : 0.5
            }
        }
    ],
    "meshes" : [
        {
            "name" : "Cylinder.068",
            "primitives" : [
                {
                    "attributes" : {
                        "POSITION" : 0,
                        "NORMAL" : 1,
                        "TEXCOORD_0" : 2,
                        "TEXCOORD_1" : 3,
                        "TEXCOORD_2" : 4,
                        "TEXCOORD_3" : 5,
                        "TEXCOORD_4" : 6,
                        "TEXCOORD_5" : 7,
                        "TEXCOORD_6" : 8,
                        "TEXCOORD_7" : 9
                    },
                    "indices" : 10,
                    "material" : 0
                }
            ]
        }
    ],
    "accessors" : [
        {
            "bufferView" : 0,
            "componentType" : 5126,
            "count" : 3528,
            "max" : [
                2.567176103591919,
                3.3051981925964355,
                2.430819272994995
            ],
            "min" : [
                -2.6330862045288086,
                -2.9643024390679784e-05,
                -2.0163345336914062
            ],
            "type" : "VEC3"
        },
        {
            "bufferView" : 1,
            "componentType" : 5126,
            "count" : 3528,
            "type" : "VEC3"
        },
        {
            "bufferView" : 2,
            "componentType" : 5126,
            "count" : 3528,
            "type" : "VEC2"
        },
        {
            "bufferView" : 3,
            "componentType" : 5126,
            "count" : 3528,
            "type" : "VEC2"
        },
        {
            "bufferView" : 4,
            "componentType" : 5126,
            "count" : 3528,
            "type" : "VEC2"
        },
        {
            "bufferView" : 5,
            "componentType" : 5126,
            "count" : 3528,
            "type" : "VEC2"
        },
        {
            "bufferView" : 6,
            "componentType" : 5126,
            "count" : 3528,
            "type" : "VEC2"
        },
        {
            "bufferView" : 7,
            "componentType" : 5126,
            "count" : 3528,
            "type" : "VEC2"
        },
        {
            "bufferView" : 8,
            "componentType" : 5126,
            "count" : 3528,
            "type" : "VEC2"
        },
        {
            "bufferView" : 9,
            "componentType" : 5126,
            "count" : 3528,
            "type" : "VEC2"
        },
        {
            "bufferView" : 10,
            "componentType" : 5123,
            "count" : 6156,
            "type" : "SCALAR"
        },
        {
            "bufferView" : 11,
            "componentType" : 5126,
            "count" : 2,
            "max" : [
                0.041666666666666664
            ],
            "min" : [
                0
            ],
            "type" : "SCALAR"
        },
        {
            "bufferView" : 12,
            "componentType" : 5126,
            "count" : 2,
            "type" : "VEC3"
        },
        {
            "bufferView" : 13,
            "componentType" : 5126,
            "count" : 2,
            "type" : "VEC4"
        },
        {
            "bufferView" : 14,
            "componentType" : 5126,
            "count" : 2,
            "type" : "VEC3"
        }
    ],
    "bufferViews" : [
        {
            "buffer" : 0,
            "byteLength" : 42336,
            "byteOffset" : 0
        },
        {
            "buffer" : 0,
            "byteLength" : 42336,
            "byteOffset" : 42336
        },
        {
            "buffer" : 0,
            "byteLength" : 28224,
            "byteOffset" : 84672
        },
        {
            "buffer" : 0,
            "byteLength" : 28224,
            "byteOffset" : 112896
        },
        {
            "buffer" : 0,
            "byteLength" : 28224,
            "byteOffset" : 141120
        },
        {
            "buffer" : 0,
            "byteLength" : 28224,
            "byteOffset" : 169344
        },
        {
            "buffer" : 0,
            "byteLength" : 28224,
            "byteOffset" : 197568
        },
        {
            "buffer" : 0,
            "byteLength" : 28224,
            "byteOffset" : 225792
        },
        {
            "buffer" : 0,
            "byteLength" : 28224,
            "byteOffset" : 254016
        },
        {
            "buffer" : 0,
            "byteLength" : 28224,
            "byteOffset" : 282240
        },
        {
            "buffer" : 0,
            "byteLength" : 12312,
            "byteOffset" : 310464
        },
        {
            "buffer" : 0,
            "byteLength" : 8,
            "byteOffset" : 322776
        },
        {
            "buffer" : 0,
            "byteLength" : 24,
            "byteOffset" : 322784
        },
        {
            "buffer" : 0,
            "byteLength" : 32,
            "byteOffset" : 322808
        },
        {
            "buffer" : 0,
            "byteLength" : 24,
            "byteOffset" : 322840
        }
    ],
    "buffers" : [
        {
            "byteLength" : 322864,
            "uri" : "rock1_big.bin"
        }
    ]
}
