{
    "asset" : {
        "generator" : "Khronos glTF Blender I/O v3.2.43",
        "version" : "2.0"
    },
    "scene" : 0,
    "scenes" : [
        {
            "name" : "Scene",
            "nodes" : [
                0
            ]
        }
    ],
    "nodes" : [
        {
            "mesh" : 0,
            "name" : "big_rock_05",
            "rotation" : [
                0,
                0.9987725615501404,
                0,
                0.0495331734418869
            ],
            "scale" : [
                1.7034937143325806,
                1.7034937143325806,
                1.7034937143325806
            ],
            "translation" : [
                16.04348373413086,
                0,
                -4.676204681396484
            ]
        }
    ],
    "animations" : [
        {
            "channels" : [
                {
                    "sampler" : 0,
                    "target" : {
                        "node" : 0,
                        "path" : "translation"
                    }
                },
                {
                    "sampler" : 1,
                    "target" : {
                        "node" : 0,
                        "path" : "rotation"
                    }
                },
                {
                    "sampler" : 2,
                    "target" : {
                        "node" : 0,
                        "path" : "scale"
                    }
                }
            ],
            "name" : "big_rock_05",
            "samplers" : [
                {
                    "input" : 11,
                    "interpolation" : "LINEAR",
                    "output" : 12
                },
                {
                    "input" : 11,
                    "interpolation" : "LINEAR",
                    "output" : 13
                },
                {
                    "input" : 11,
                    "interpolation" : "LINEAR",
                    "output" : 14
                }
            ]
        }
    ],
    "materials" : [
        {
            "doubleSided" : true,
            "name" : "rock",
            "pbrMetallicRoughness" : {}
        }
    ],
    "meshes" : [
        {
            "name" : "Cylinder.200",
            "primitives" : [
                {
                    "attributes" : {
                        "POSITION" : 0,
                        "NORMAL" : 1,
                        "TEXCOORD_0" : 2,
                        "TEXCOORD_1" : 3,
                        "TEXCOORD_2" : 4,
                        "TEXCOORD_3" : 5,
                        "TEXCOORD_4" : 6,
                        "TEXCOORD_5" : 7,
                        "TEXCOORD_6" : 8,
                        "TEXCOORD_7" : 9
                    },
                    "indices" : 10,
                    "material" : 0
                }
            ]
        }
    ],
    "accessors" : [
        {
            "bufferView" : 0,
            "componentType" : 5126,
            "count" : 3312,
            "max" : [
                1.8128726482391357,
                3.676481008529663,
                2.7200839519500732
            ],
            "min" : [
                -2.2430577278137207,
                -0.00654222909361124,
                -1.908887267112732
            ],
            "type" : "VEC3"
        },
        {
            "bufferView" : 1,
            "componentType" : 5126,
            "count" : 3312,
            "type" : "VEC3"
        },
        {
            "bufferView" : 2,
            "componentType" : 5126,
            "count" : 3312,
            "type" : "VEC2"
        },
        {
            "bufferView" : 3,
            "componentType" : 5126,
            "count" : 3312,
            "type" : "VEC2"
        },
        {
            "bufferView" : 4,
            "componentType" : 5126,
            "count" : 3312,
            "type" : "VEC2"
        },
        {
            "bufferView" : 5,
            "componentType" : 5126,
            "count" : 3312,
            "type" : "VEC2"
        },
        {
            "bufferView" : 6,
            "componentType" : 5126,
            "count" : 3312,
            "type" : "VEC2"
        },
        {
            "bufferView" : 7,
            "componentType" : 5126,
            "count" : 3312,
            "type" : "VEC2"
        },
        {
            "bufferView" : 8,
            "componentType" : 5126,
            "count" : 3312,
            "type" : "VEC2"
        },
        {
            "bufferView" : 9,
            "componentType" : 5126,
            "count" : 3312,
            "type" : "VEC2"
        },
        {
            "bufferView" : 10,
            "componentType" : 5123,
            "count" : 5736,
            "type" : "SCALAR"
        },
        {
            "bufferView" : 11,
            "componentType" : 5126,
            "count" : 2,
            "max" : [
                0.041666666666666664
            ],
            "min" : [
                0
            ],
            "type" : "SCALAR"
        },
        {
            "bufferView" : 12,
            "componentType" : 5126,
            "count" : 2,
            "type" : "VEC3"
        },
        {
            "bufferView" : 13,
            "componentType" : 5126,
            "count" : 2,
            "type" : "VEC4"
        },
        {
            "bufferView" : 14,
            "componentType" : 5126,
            "count" : 2,
            "type" : "VEC3"
        }
    ],
    "bufferViews" : [
        {
            "buffer" : 0,
            "byteLength" : 39744,
            "byteOffset" : 0
        },
        {
            "buffer" : 0,
            "byteLength" : 39744,
            "byteOffset" : 39744
        },
        {
            "buffer" : 0,
            "byteLength" : 26496,
            "byteOffset" : 79488
        },
        {
            "buffer" : 0,
            "byteLength" : 26496,
            "byteOffset" : 105984
        },
        {
            "buffer" : 0,
            "byteLength" : 26496,
            "byteOffset" : 132480
        },
        {
            "buffer" : 0,
            "byteLength" : 26496,
            "byteOffset" : 158976
        },
        {
            "buffer" : 0,
            "byteLength" : 26496,
            "byteOffset" : 185472
        },
        {
            "buffer" : 0,
            "byteLength" : 26496,
            "byteOffset" : 211968
        },
        {
            "buffer" : 0,
            "byteLength" : 26496,
            "byteOffset" : 238464
        },
        {
            "buffer" : 0,
            "byteLength" : 26496,
            "byteOffset" : 264960
        },
        {
            "buffer" : 0,
            "byteLength" : 11472,
            "byteOffset" : 291456
        },
        {
            "buffer" : 0,
            "byteLength" : 8,
            "byteOffset" : 302928
        },
        {
            "buffer" : 0,
            "byteLength" : 24,
            "byteOffset" : 302936
        },
        {
            "buffer" : 0,
            "byteLength" : 32,
            "byteOffset" : 302960
        },
        {
            "buffer" : 0,
            "byteLength" : 24,
            "byteOffset" : 302992
        }
    ],
    "buffers" : [
        {
            "byteLength" : 303016,
            "uri" : "rock5_big.bin"
        }
    ]
}
