{
    "asset" : {
        "generator" : "Khronos glTF Blender I/O v3.2.43",
        "version" : "2.0"
    },
    "scene" : 0,
    "scenes" : [
        {
            "name" : "Scene",
            "nodes" : [
                0
            ]
        }
    ],
    "nodes" : [
        {
            "mesh" : 0,
            "name" : "big_rock_01",
            "rotation" : [
                0,
                -0.7071068286895752,
                0,
                0.7071068286895752
            ],
            "scale" : [
                1.3723505735397339,
                1.3723505735397339,
                1.3723505735397339
            ],
            "translation" : [
                -8.26169490814209,
                0,
                -5.132955551147461
            ]
        }
    ],
    "animations" : [
        {
            "channels" : [
                {
                    "sampler" : 0,
                    "target" : {
                        "node" : 0,
                        "path" : "translation"
                    }
                },
                {
                    "sampler" : 1,
                    "target" : {
                        "node" : 0,
                        "path" : "rotation"
                    }
                },
                {
                    "sampler" : 2,
                    "target" : {
                        "node" : 0,
                        "path" : "scale"
                    }
                }
            ],
            "name" : "big_rock_01",
            "samplers" : [
                {
                    "input" : 11,
                    "interpolation" : "LINEAR",
                    "output" : 12
                },
                {
                    "input" : 11,
                    "interpolation" : "LINEAR",
                    "output" : 13
                },
                {
                    "input" : 11,
                    "interpolation" : "LINEAR",
                    "output" : 14
                }
            ]
        }
    ],
    "materials" : [
        {
            "doubleSided" : true,
            "name" : "rock",
            "pbrMetallicRoughness" : {}
        }
    ],
    "meshes" : [
        {
            "name" : "Cylinder.012",
            "primitives" : [
                {
                    "attributes" : {
                        "POSITION" : 0,
                        "NORMAL" : 1,
                        "TEXCOORD_0" : 2,
                        "TEXCOORD_1" : 3,
                        "TEXCOORD_2" : 4,
                        "TEXCOORD_3" : 5,
                        "TEXCOORD_4" : 6,
                        "TEXCOORD_5" : 7,
                        "TEXCOORD_6" : 8,
                        "TEXCOORD_7" : 9
                    },
                    "indices" : 10,
                    "material" : 0
                }
            ]
        }
    ],
    "accessors" : [
        {
            "bufferView" : 0,
            "componentType" : 5126,
            "count" : 2586,
            "max" : [
                1.8335089683532715,
                3.236257314682007,
                1.9185534715652466
            ],
            "min" : [
                -1.979520559310913,
                -0.009792353957891464,
                -1.4541115760803223
            ],
            "type" : "VEC3"
        },
        {
            "bufferView" : 1,
            "componentType" : 5126,
            "count" : 2586,
            "type" : "VEC3"
        },
        {
            "bufferView" : 2,
            "componentType" : 5126,
            "count" : 2586,
            "type" : "VEC2"
        },
        {
            "bufferView" : 3,
            "componentType" : 5126,
            "count" : 2586,
            "type" : "VEC2"
        },
        {
            "bufferView" : 4,
            "componentType" : 5126,
            "count" : 2586,
            "type" : "VEC2"
        },
        {
            "bufferView" : 5,
            "componentType" : 5126,
            "count" : 2586,
            "type" : "VEC2"
        },
        {
            "bufferView" : 6,
            "componentType" : 5126,
            "count" : 2586,
            "type" : "VEC2"
        },
        {
            "bufferView" : 7,
            "componentType" : 5126,
            "count" : 2586,
            "type" : "VEC2"
        },
        {
            "bufferView" : 8,
            "componentType" : 5126,
            "count" : 2586,
            "type" : "VEC2"
        },
        {
            "bufferView" : 9,
            "componentType" : 5126,
            "count" : 2586,
            "type" : "VEC2"
        },
        {
            "bufferView" : 10,
            "componentType" : 5123,
            "count" : 4632,
            "type" : "SCALAR"
        },
        {
            "bufferView" : 11,
            "componentType" : 5126,
            "count" : 2,
            "max" : [
                0.041666666666666664
            ],
            "min" : [
                0
            ],
            "type" : "SCALAR"
        },
        {
            "bufferView" : 12,
            "componentType" : 5126,
            "count" : 2,
            "type" : "VEC3"
        },
        {
            "bufferView" : 13,
            "componentType" : 5126,
            "count" : 2,
            "type" : "VEC4"
        },
        {
            "bufferView" : 14,
            "componentType" : 5126,
            "count" : 2,
            "type" : "VEC3"
        }
    ],
    "bufferViews" : [
        {
            "buffer" : 0,
            "byteLength" : 31032,
            "byteOffset" : 0
        },
        {
            "buffer" : 0,
            "byteLength" : 31032,
            "byteOffset" : 31032
        },
        {
            "buffer" : 0,
            "byteLength" : 20688,
            "byteOffset" : 62064
        },
        {
            "buffer" : 0,
            "byteLength" : 20688,
            "byteOffset" : 82752
        },
        {
            "buffer" : 0,
            "byteLength" : 20688,
            "byteOffset" : 103440
        },
        {
            "buffer" : 0,
            "byteLength" : 20688,
            "byteOffset" : 124128
        },
        {
            "buffer" : 0,
            "byteLength" : 20688,
            "byteOffset" : 144816
        },
        {
            "buffer" : 0,
            "byteLength" : 20688,
            "byteOffset" : 165504
        },
        {
            "buffer" : 0,
            "byteLength" : 20688,
            "byteOffset" : 186192
        },
        {
            "buffer" : 0,
            "byteLength" : 20688,
            "byteOffset" : 206880
        },
        {
            "buffer" : 0,
            "byteLength" : 9264,
            "byteOffset" : 227568
        },
        {
            "buffer" : 0,
            "byteLength" : 8,
            "byteOffset" : 236832
        },
        {
            "buffer" : 0,
            "byteLength" : 24,
            "byteOffset" : 236840
        },
        {
            "buffer" : 0,
            "byteLength" : 32,
            "byteOffset" : 236864
        },
        {
            "buffer" : 0,
            "byteLength" : 24,
            "byteOffset" : 236896
        }
    ],
    "buffers" : [
        {
            "byteLength" : 236920,
            "uri" : "rock2_big.bin"
        }
    ]
}
