{
    "asset" : {
        "generator" : "Khronos glTF Blender I/O v3.2.43",
        "version" : "2.0"
    },
    "scene" : 0,
    "scenes" : [
        {
            "name" : "Scene",
            "nodes" : [
                2
            ]
        }
    ],
    "nodes" : [
        {
            "mesh" : 0,
            "name" : "Cube.001"
        },
        {
            "mesh" : 1,
            "name" : "Cube.003",
            "rotation" : [
                0,
                -0.9999998211860657,
                0,
                0.0006125834188424051
            ],
            "translation" : [
                0.29901123046875,
                0.46851882338523865,
                -10.546070098876953
            ]
        },
        {
            "children" : [
                0,
                1
            ],
            "mesh" : 2,
            "name" : "Cube",
            "translation" : [
                -68.60962677001953,
                0,
                27.466886520385742
            ]
        }
    ],
    "materials" : [
        {
            "doubleSided" : true,
            "name" : "windows",
            "pbrMetallicRoughness" : {
                "baseColorFactor" : [
                    0.00041337026050314307,
                    0.00041337026050314307,
                    0.00041337026050314307,
                    1
                ],
                "roughnessFactor" : 0
            }
        },
        {
            "doubleSided" : true,
            "name" : "bars",
            "pbrMetallicRoughness" : {
                "baseColorFactor" : [
                    0.8000000715255737,
                    0.5359523892402649,
                    0.18951579928398132,
                    1
                ],
                "metallicFactor" : 0,
                "roughnessFactor" : 0.5
            }
        },
        {
            "doubleSided" : true,
            "name" : "door-bars",
            "pbrMetallicRoughness" : {
                "baseColorFactor" : [
                    0.8000000715255737,
                    0.26080048084259033,
                    0.03774421289563179,
                    1
                ],
                "metallicFactor" : 0,
                "roughnessFactor" : 0.5
            }
        },
        {
            "doubleSided" : true,
            "name" : "door-pannel",
            "pbrMetallicRoughness" : {
                "baseColorFactor" : [
                    1,
                    0.19763188064098358,
                    0.025116359815001488,
                    1
                ],
                "metallicFactor" : 0,
                "roughnessFactor" : 0.5
            }
        },
        {
            "doubleSided" : true,
            "name" : "Material",
            "pbrMetallicRoughness" : {
                "baseColorFactor" : [
                    0.6632205247879028,
                    0.742662250995636,
                    0.48883339762687683,
                    1
                ],
                "metallicFactor" : 0,
                "roughnessFactor" : 0.5
            }
        }
    ],
    "meshes" : [
        {
            "name" : "Cube.001",
            "primitives" : [
                {
                    "attributes" : {
                        "POSITION" : 0,
                        "NORMAL" : 1,
                        "TEXCOORD_0" : 2
                    },
                    "indices" : 3,
                    "material" : 0
                },
                {
                    "attributes" : {
                        "POSITION" : 4,
                        "NORMAL" : 5,
                        "TEXCOORD_0" : 6
                    },
                    "indices" : 7,
                    "material" : 1
                }
            ]
        },
        {
            "name" : "Cube.003",
            "primitives" : [
                {
                    "attributes" : {
                        "POSITION" : 8,
                        "NORMAL" : 9,
                        "TEXCOORD_0" : 10
                    },
                    "indices" : 11,
                    "material" : 2
                },
                {
                    "attributes" : {
                        "POSITION" : 12,
                        "NORMAL" : 13,
                        "TEXCOORD_0" : 14
                    },
                    "indices" : 15,
                    "material" : 3
                },
                {
                    "attributes" : {
                        "POSITION" : 16,
                        "NORMAL" : 17,
                        "TEXCOORD_0" : 18
                    },
                    "indices" : 19,
                    "material" : 1
                }
            ]
        },
        {
            "name" : "Cube",
            "primitives" : [
                {
                    "attributes" : {
                        "POSITION" : 20,
                        "NORMAL" : 21,
                        "TEXCOORD_0" : 22
                    },
                    "indices" : 23,
                    "material" : 4
                },
                {
                    "attributes" : {
                        "POSITION" : 24,
                        "NORMAL" : 25,
                        "TEXCOORD_0" : 26
                    },
                    "indices" : 27,
                    "material" : 1
                },
                {
                    "attributes" : {
                        "POSITION" : 28,
                        "NORMAL" : 29,
                        "TEXCOORD_0" : 30
                    },
                    "indices" : 31,
                    "material" : 2
                },
                {
                    "attributes" : {
                        "POSITION" : 32,
                        "NORMAL" : 33,
                        "TEXCOORD_0" : 34
                    },
                    "indices" : 35,
                    "material" : 3
                }
            ]
        }
    ],
    "accessors" : [
        {
            "bufferView" : 0,
            "componentType" : 5126,
            "count" : 16,
            "max" : [
                4.590826034545898,
                15.508477210998535,
                6.383366584777832
            ],
            "min" : [
                -6.368837356567383,
                3.1273727416992188,
                0.7631089687347412
            ],
            "type" : "VEC3"
        },
        {
            "bufferView" : 1,
            "componentType" : 5126,
            "count" : 16,
            "type" : "VEC3"
        },
        {
            "bufferView" : 2,
            "componentType" : 5126,
            "count" : 16,
            "type" : "VEC2"
        },
        {
            "bufferView" : 3,
            "componentType" : 5123,
            "count" : 24,
            "type" : "SCALAR"
        },
        {
            "bufferView" : 4,
            "componentType" : 5126,
            "count" : 200,
            "max" : [
                4.829251289367676,
                15.746902465820312,
                6.5140380859375
            ],
            "min" : [
                -6.499508857727051,
                2.8889474868774414,
                0.5246835947036743
            ],
            "type" : "VEC3"
        },
        {
            "bufferView" : 5,
            "componentType" : 5126,
            "count" : 200,
            "type" : "VEC3"
        },
        {
            "bufferView" : 6,
            "componentType" : 5126,
            "count" : 200,
            "type" : "VEC2"
        },
        {
            "bufferView" : 7,
            "componentType" : 5123,
            "count" : 306,
            "type" : "SCALAR"
        },
        {
            "bufferView" : 8,
            "componentType" : 5126,
            "count" : 64,
            "max" : [
                2.5484635829925537,
                1.5846054553985596,
                -0.3810468912124634
            ],
            "min" : [
                -2.543140172958374,
                0.1568823754787445,
                -2.426510810852051
            ],
            "type" : "VEC3"
        },
        {
            "bufferView" : 9,
            "componentType" : 5126,
            "count" : 64,
            "type" : "VEC3"
        },
        {
            "bufferView" : 10,
            "componentType" : 5126,
            "count" : 64,
            "type" : "VEC2"
        },
        {
            "bufferView" : 11,
            "componentType" : 5123,
            "count" : 96,
            "type" : "SCALAR"
        },
        {
            "bufferView" : 12,
            "componentType" : 5126,
            "count" : 96,
            "max" : [
                2.632838249206543,
                2.322890281677246,
                -0.31325650215148926
            ],
            "min" : [
                -2.6294946670532227,
                1.1692969799041748,
                -4.265484809875488
            ],
            "type" : "VEC3"
        },
        {
            "bufferView" : 13,
            "componentType" : 5126,
            "count" : 96,
            "type" : "VEC3"
        },
        {
            "bufferView" : 14,
            "componentType" : 5126,
            "count" : 96,
            "type" : "VEC2"
        },
        {
            "bufferView" : 15,
            "componentType" : 5123,
            "count" : 144,
            "type" : "SCALAR"
        },
        {
            "bufferView" : 16,
            "componentType" : 5126,
            "count" : 400,
            "max" : [
                2.632838249206543,
                2.322890281677246,
                -0.31325650215148926
            ],
            "min" : [
                -2.6294946670532227,
                -0.6598724126815796,
                -4.265484809875488
            ],
            "type" : "VEC3"
        },
        {
            "bufferView" : 17,
            "componentType" : 5126,
            "count" : 400,
            "type" : "VEC3"
        },
        {
            "bufferView" : 18,
            "componentType" : 5126,
            "count" : 400,
            "type" : "VEC2"
        },
        {
            "bufferView" : 19,
            "componentType" : 5123,
            "count" : 600,
            "type" : "SCALAR"
        },
        {
            "bufferView" : 20,
            "componentType" : 5126,
            "count" : 208,
            "max" : [
                6.656264781951904,
                17.750137329101562,
                6.656264781951904
            ],
            "min" : [
                -6.656264781951904,
                -0.1574087142944336,
                -6.656264305114746
            ],
            "type" : "VEC3"
        },
        {
            "bufferView" : 21,
            "componentType" : 5126,
            "count" : 208,
            "type" : "VEC3"
        },
        {
            "bufferView" : 22,
            "componentType" : 5126,
            "count" : 208,
            "type" : "VEC2"
        },
        {
            "bufferView" : 23,
            "componentType" : 5123,
            "count" : 450,
            "type" : "SCALAR"
        },
        {
            "bufferView" : 24,
            "componentType" : 5126,
            "count" : 343,
            "max" : [
                6.7179975509643555,
                18.382295608520508,
                6.7179975509643555
            ],
            "min" : [
                -6.7179975509643555,
                -0.1574087142944336,
                -6.7179975509643555
            ],
            "type" : "VEC3"
        },
        {
            "bufferView" : 25,
            "componentType" : 5126,
            "count" : 343,
            "type" : "VEC3"
        },
        {
            "bufferView" : 26,
            "componentType" : 5126,
            "count" : 343,
            "type" : "VEC2"
        },
        {
            "bufferView" : 27,
            "componentType" : 5123,
            "count" : 714,
            "type" : "SCALAR"
        },
        {
            "bufferView" : 28,
            "componentType" : 5126,
            "count" : 272,
            "max" : [
                2.474855899810791,
                7.592076301574707,
                -1.8115434646606445
            ],
            "min" : [
                -6.432074069976807,
                -0.12218451499938965,
                -6.476223945617676
            ],
            "type" : "VEC3"
        },
        {
            "bufferView" : 29,
            "componentType" : 5126,
            "count" : 272,
            "type" : "VEC3"
        },
        {
            "bufferView" : 30,
            "componentType" : 5126,
            "count" : 272,
            "type" : "VEC2"
        },
        {
            "bufferView" : 31,
            "componentType" : 5123,
            "count" : 480,
            "type" : "SCALAR"
        },
        {
            "bufferView" : 32,
            "componentType" : 5126,
            "count" : 14,
            "max" : [
                2.325883388519287,
                7.394996643066406,
                -1.9747216701507568
            ],
            "min" : [
                -5.709550857543945,
                0.16187667846679688,
                -5.859025478363037
            ],
            "type" : "VEC3"
        },
        {
            "bufferView" : 33,
            "componentType" : 5126,
            "count" : 14,
            "type" : "VEC3"
        },
        {
            "bufferView" : 34,
            "componentType" : 5126,
            "count" : 14,
            "type" : "VEC2"
        },
        {
            "bufferView" : 35,
            "componentType" : 5123,
            "count" : 24,
            "type" : "SCALAR"
        }
    ],
    "bufferViews" : [
        {
            "buffer" : 0,
            "byteLength" : 192,
            "byteOffset" : 0
        },
        {
            "buffer" : 0,
            "byteLength" : 192,
            "byteOffset" : 192
        },
        {
            "buffer" : 0,
            "byteLength" : 128,
            "byteOffset" : 384
        },
        {
            "buffer" : 0,
            "byteLength" : 48,
            "byteOffset" : 512
        },
        {
            "buffer" : 0,
            "byteLength" : 2400,
            "byteOffset" : 560
        },
        {
            "buffer" : 0,
            "byteLength" : 2400,
            "byteOffset" : 2960
        },
        {
            "buffer" : 0,
            "byteLength" : 1600,
            "byteOffset" : 5360
        },
        {
            "buffer" : 0,
            "byteLength" : 612,
            "byteOffset" : 6960
        },
        {
            "buffer" : 0,
            "byteLength" : 768,
            "byteOffset" : 7572
        },
        {
            "buffer" : 0,
            "byteLength" : 768,
            "byteOffset" : 8340
        },
        {
            "buffer" : 0,
            "byteLength" : 512,
            "byteOffset" : 9108
        },
        {
            "buffer" : 0,
            "byteLength" : 192,
            "byteOffset" : 9620
        },
        {
            "buffer" : 0,
            "byteLength" : 1152,
            "byteOffset" : 9812
        },
        {
            "buffer" : 0,
            "byteLength" : 1152,
            "byteOffset" : 10964
        },
        {
            "buffer" : 0,
            "byteLength" : 768,
            "byteOffset" : 12116
        },
        {
            "buffer" : 0,
            "byteLength" : 288,
            "byteOffset" : 12884
        },
        {
            "buffer" : 0,
            "byteLength" : 4800,
            "byteOffset" : 13172
        },
        {
            "buffer" : 0,
            "byteLength" : 4800,
            "byteOffset" : 17972
        },
        {
            "buffer" : 0,
            "byteLength" : 3200,
            "byteOffset" : 22772
        },
        {
            "buffer" : 0,
            "byteLength" : 1200,
            "byteOffset" : 25972
        },
        {
            "buffer" : 0,
            "byteLength" : 2496,
            "byteOffset" : 27172
        },
        {
            "buffer" : 0,
            "byteLength" : 2496,
            "byteOffset" : 29668
        },
        {
            "buffer" : 0,
            "byteLength" : 1664,
            "byteOffset" : 32164
        },
        {
            "buffer" : 0,
            "byteLength" : 900,
            "byteOffset" : 33828
        },
        {
            "buffer" : 0,
            "byteLength" : 4116,
            "byteOffset" : 34728
        },
        {
            "buffer" : 0,
            "byteLength" : 4116,
            "byteOffset" : 38844
        },
        {
            "buffer" : 0,
            "byteLength" : 2744,
            "byteOffset" : 42960
        },
        {
            "buffer" : 0,
            "byteLength" : 1428,
            "byteOffset" : 45704
        },
        {
            "buffer" : 0,
            "byteLength" : 3264,
            "byteOffset" : 47132
        },
        {
            "buffer" : 0,
            "byteLength" : 3264,
            "byteOffset" : 50396
        },
        {
            "buffer" : 0,
            "byteLength" : 2176,
            "byteOffset" : 53660
        },
        {
            "buffer" : 0,
            "byteLength" : 960,
            "byteOffset" : 55836
        },
        {
            "buffer" : 0,
            "byteLength" : 168,
            "byteOffset" : 56796
        },
        {
            "buffer" : 0,
            "byteLength" : 168,
            "byteOffset" : 56964
        },
        {
            "buffer" : 0,
            "byteLength" : 112,
            "byteOffset" : 57132
        },
        {
            "buffer" : 0,
            "byteLength" : 48,
            "byteOffset" : 57244
        }
    ],
    "buffers" : [
        {
            "byteLength" : 57292,
            "uri" : "house.bin"
        }
    ]
}
