{
    "asset" : {
        "generator" : "Khronos glTF Blender I/O v3.2.43",
        "version" : "2.0"
    },
    "scene" : 0,
    "scenes" : [
        {
            "name" : "Scene",
            "nodes" : [
                0
            ]
        }
    ],
    "nodes" : [
        {
            "mesh" : 0,
            "name" : "big_rock_04",
            "rotation" : [
                0,
                -0.7071068286895752,
                0,
                0.7071068286895752
            ],
            "scale" : [
                1,
                2.1697232723236084,
                1
            ],
            "translation" : [
                7.9154276847839355,
                0,
                -5.347225189208984
            ]
        }
    ],
    "animations" : [
        {
            "channels" : [
                {
                    "sampler" : 0,
                    "target" : {
                        "node" : 0,
                        "path" : "translation"
                    }
                },
                {
                    "sampler" : 1,
                    "target" : {
                        "node" : 0,
                        "path" : "rotation"
                    }
                },
                {
                    "sampler" : 2,
                    "target" : {
                        "node" : 0,
                        "path" : "scale"
                    }
                }
            ],
            "name" : "big_rock_04",
            "samplers" : [
                {
                    "input" : 9,
                    "interpolation" : "LINEAR",
                    "output" : 10
                },
                {
                    "input" : 9,
                    "interpolation" : "LINEAR",
                    "output" : 11
                },
                {
                    "input" : 9,
                    "interpolation" : "LINEAR",
                    "output" : 12
                }
            ]
        }
    ],
    "materials" : [
        {
            "doubleSided" : true,
            "name" : "rock",
            "pbrMetallicRoughness" : {}
        }
    ],
    "meshes" : [
        {
            "name" : "Cylinder.143",
            "primitives" : [
                {
                    "attributes" : {
                        "POSITION" : 0,
                        "NORMAL" : 1,
                        "TEXCOORD_0" : 2,
                        "TEXCOORD_1" : 3,
                        "TEXCOORD_2" : 4,
                        "TEXCOORD_3" : 5,
                        "TEXCOORD_4" : 6,
                        "TEXCOORD_5" : 7
                    },
                    "indices" : 8,
                    "material" : 0
                }
            ]
        }
    ],
    "accessors" : [
        {
            "bufferView" : 0,
            "componentType" : 5126,
            "count" : 2640,
            "max" : [
                2.5124592781066895,
                2,
                2.5628647804260254
            ],
            "min" : [
                -1.8195583820343018,
                -0.005136438645422459,
                -1.683860182762146
            ],
            "type" : "VEC3"
        },
        {
            "bufferView" : 1,
            "componentType" : 5126,
            "count" : 2640,
            "type" : "VEC3"
        },
        {
            "bufferView" : 2,
            "componentType" : 5126,
            "count" : 2640,
            "type" : "VEC2"
        },
        {
            "bufferView" : 3,
            "componentType" : 5126,
            "count" : 2640,
            "type" : "VEC2"
        },
        {
            "bufferView" : 4,
            "componentType" : 5126,
            "count" : 2640,
            "type" : "VEC2"
        },
        {
            "bufferView" : 5,
            "componentType" : 5126,
            "count" : 2640,
            "type" : "VEC2"
        },
        {
            "bufferView" : 6,
            "componentType" : 5126,
            "count" : 2640,
            "type" : "VEC2"
        },
        {
            "bufferView" : 7,
            "componentType" : 5126,
            "count" : 2640,
            "type" : "VEC2"
        },
        {
            "bufferView" : 8,
            "componentType" : 5123,
            "count" : 4680,
            "type" : "SCALAR"
        },
        {
            "bufferView" : 9,
            "componentType" : 5126,
            "count" : 2,
            "max" : [
                0.041666666666666664
            ],
            "min" : [
                0
            ],
            "type" : "SCALAR"
        },
        {
            "bufferView" : 10,
            "componentType" : 5126,
            "count" : 2,
            "type" : "VEC3"
        },
        {
            "bufferView" : 11,
            "componentType" : 5126,
            "count" : 2,
            "type" : "VEC4"
        },
        {
            "bufferView" : 12,
            "componentType" : 5126,
            "count" : 2,
            "type" : "VEC3"
        }
    ],
    "bufferViews" : [
        {
            "buffer" : 0,
            "byteLength" : 31680,
            "byteOffset" : 0
        },
        {
            "buffer" : 0,
            "byteLength" : 31680,
            "byteOffset" : 31680
        },
        {
            "buffer" : 0,
            "byteLength" : 21120,
            "byteOffset" : 63360
        },
        {
            "buffer" : 0,
            "byteLength" : 21120,
            "byteOffset" : 84480
        },
        {
            "buffer" : 0,
            "byteLength" : 21120,
            "byteOffset" : 105600
        },
        {
            "buffer" : 0,
            "byteLength" : 21120,
            "byteOffset" : 126720
        },
        {
            "buffer" : 0,
            "byteLength" : 21120,
            "byteOffset" : 147840
        },
        {
            "buffer" : 0,
            "byteLength" : 21120,
            "byteOffset" : 168960
        },
        {
            "buffer" : 0,
            "byteLength" : 9360,
            "byteOffset" : 190080
        },
        {
            "buffer" : 0,
            "byteLength" : 8,
            "byteOffset" : 199440
        },
        {
            "buffer" : 0,
            "byteLength" : 24,
            "byteOffset" : 199448
        },
        {
            "buffer" : 0,
            "byteLength" : 32,
            "byteOffset" : 199472
        },
        {
            "buffer" : 0,
            "byteLength" : 24,
            "byteOffset" : 199504
        }
    ],
    "buffers" : [
        {
            "byteLength" : 199528,
            "uri" : "rock4_big.bin"
        }
    ]
}
